<svg xmlns="http://www.w3.org/2000/svg" width="517.935791015625" height="445.709716796875" viewBox="-140.94346618652344 -244.54049682617188 517.935791015625 445.709716796875"><title>Neo4j Graph Visualization</title><desc>Created using Neo4j (http://www.neo4j.com/)</desc><g class="layer relationships"><g class="relationship" transform="translate(-20.262734284511847 -153.79281248954837) rotate(396.33246645518113)"><path class="outline" fill="#A5ABB6" stroke="none" d="M 25 0.5 L 56.66142890416823 0.5 L 56.66142890416823 -0.5 L 25 -0.5 Z M 92.45830390416823 0.5 L 124.11973280833647 0.5 L 124.11973280833647 3.5 L 131.11973280833647 0 L 124.11973280833647 -3.5 L 124.11973280833647 -0.5 L 92.45830390416823 -0.5 Z"/><text text-anchor="middle" pointer-events="none" font-size="8px" fill="#000000" x="74.55986640416823" y="3" font-family="sans-serif">plays_at</text></g><g class="relationship" transform="translate(65.03566279438307 -210.36781888111014) rotate(434.8111814158304)"><path class="outline" fill="#A5ABB6" stroke="none" d="M 25 0.5 L 55.8351264561247 0.5 L 55.8351264561247 -0.5 L 25 -0.5 Z M 91.6320014561247 0.5 L 122.4671279122494 0.5 L 122.4671279122494 3.5 L 129.4671279122494 0 L 122.4671279122494 -3.5 L 122.4671279122494 -0.5 L 91.6320014561247 -0.5 Z"/><text text-anchor="middle" pointer-events="none" font-size="8px" fill="#000000" x="73.7335639561247" y="3" font-family="sans-serif">plays_at</text></g><g class="relationship" transform="translate(207.83061516934924 -187.86384689869607) rotate(488.954117947912)"><path class="outline" fill="#A5ABB6" stroke="none" d="M 25 0.5 L 52.41713051510021 0.5 L 52.41713051510021 -0.5 L 25 -0.5 Z M 103.33900551510021 0.5 L 130.75613603020042 0.5 L 130.75613603020042 3.5 L 137.75613603020042 0 L 130.75613603020042 -3.5 L 130.75613603020042 -0.5 L 103.33900551510021 -0.5 Z"/><text text-anchor="middle" pointer-events="none" font-size="8px" fill="#000000" x="77.87806801510021" y="3" transform="rotate(180 77.87806801510021 0)" font-family="sans-serif">play_against</text></g><g class="relationship" transform="translate(141.3873533991666 157.25605967937096) rotate(262.88087653437924)"><path class="outline" fill="#A5ABB6" stroke="none" d="M 25 0.5 L 35.36168942688265 0.5 L 35.36168942688265 -0.5 L 25 -0.5 Z M 86.28356442688265 0.5 L 96.6452538537653 0.5 L 96.6452538537653 3.5 L 103.6452538537653 0 L 96.6452538537653 -3.5 L 96.6452538537653 -0.5 L 86.28356442688265 -0.5 Z"/><text text-anchor="middle" pointer-events="none" font-size="8px" fill="#000000" x="60.82262692688265" y="3" transform="rotate(180 60.82262692688265 0)" font-family="sans-serif">play_against</text></g><g class="relationship" transform="translate(11.372800476980032 172.16924067738609) rotate(275.73854935491613)"><path class="outline" fill="#A5ABB6" stroke="none" d="M 25 0.5 L 45.2452864403305 0.5 L 45.2452864403305 -0.5 L 25 -0.5 Z M 96.1671614403305 0.5 L 116.412447880661 0.5 L 116.412447880661 3.5 L 123.412447880661 0 L 116.412447880661 -3.5 L 116.412447880661 -0.5 L 96.1671614403305 -0.5 Z"/><text text-anchor="middle" pointer-events="none" font-size="8px" fill="#000000" x="70.7062239403305" y="3" font-family="sans-serif">play_against</text></g><g class="relationship" transform="translate(302.7994903449336 -75.6180839396627) rotate(229.766113409325)"><path class="outline" fill="#A5ABB6" stroke="none" d="M 25 0.5 L 52.11720463548575 0.5 L 52.11720463548575 -0.5 L 25 -0.5 Z M 87.91407963548575 0.5 L 115.0312842709715 0.5 L 115.0312842709715 3.5 L 122.0312842709715 0 L 115.0312842709715 -3.5 L 115.0312842709715 -0.5 L 87.91407963548575 -0.5 Z"/><text text-anchor="middle" pointer-events="none" font-size="8px" fill="#000000" x="70.01564213548575" y="3" transform="rotate(180 70.01564213548575 0)" font-family="sans-serif">plays_at</text></g><g class="relationship" transform="translate(347.99230245942243 -215.5404814827948) rotate(528.8299484497983)"><path class="outline" fill="#A5ABB6" stroke="none" d="M 25 0.5 L 50.03561370441861 0.5 L 50.03561370441861 -0.5 L 25 -0.5 Z M 85.83248870441861 0.5 L 110.86810240883722 0.5 L 110.86810240883722 3.5 L 117.86810240883722 0 L 110.86810240883722 -3.5 L 110.86810240883722 -0.5 L 85.83248870441861 -0.5 Z"/><text text-anchor="middle" pointer-events="none" font-size="8px" fill="#000000" x="67.93405120441861" y="3" transform="rotate(180 67.93405120441861 0)" font-family="sans-serif">plays_at</text></g></g><g class="layer nodes"><g class="node" aria-label="graph-node0" transform="translate(-20.262734284511847,-153.79281248954837)"><circle class="outline" cx="0" cy="0" r="25" fill="#F16667" stroke="#eb2728" stroke-width="2px"/><text class="caption" text-anchor="middle" pointer-events="none" x="0" y="5" font-size="10px" fill="#FFFFFF" font-family="sans-serif"> leo messi</text></g><g class="node" aria-label="graph-node1" transform="translate(65.03566279438307,-210.36781888111014)"><circle class="outline" cx="0" cy="0" r="25" fill="#F16667" stroke="#eb2728" stroke-width="2px"/><text class="caption" text-anchor="middle" pointer-events="none" x="0" y="0" font-size="10px" fill="#FFFFFF" font-family="sans-serif"> kyllian</text><text class="caption" text-anchor="middle" pointer-events="none" x="0" y="10" font-size="10px" fill="#FFFFFF" font-family="sans-serif"> mbappe</text></g><g class="node" aria-label="graph-node2" transform="translate(207.83061516934924,-187.86384689869607)"><circle class="outline" cx="0" cy="0" r="25" fill="#ECB5C9" stroke="#da7298" stroke-width="2px"/><text class="caption" text-anchor="middle" pointer-events="none" x="0" y="0" font-size="10px" fill="#2A2C34" font-family="sans-serif"> real</text><text class="caption" text-anchor="middle" pointer-events="none" x="0" y="10" font-size="10px" fill="#2A2C34" font-family="sans-serif"> madrid</text></g><g class="node" aria-label="graph-node3" transform="translate(105.50618133373499,-61.296591829692886)"><circle class="outline" cx="0" cy="0" r="25" fill="#ECB5C9" stroke="#da7298" stroke-width="2px"/><text class="caption" text-anchor="middle" pointer-events="none" x="0" y="5" font-size="10px" fill="#2A2C34" font-family="sans-serif"> psg</text></g><g class="node" aria-label="graph-node4" transform="translate(141.3873533991666,157.25605967937096)"><circle class="outline" cx="0" cy="0" r="25" fill="#ECB5C9" stroke="#da7298" stroke-width="2px"/><text class="caption" text-anchor="middle" pointer-events="none" x="0" y="5" font-size="10px" fill="#2A2C34" font-family="sans-serif"> barcelona</text></g><g class="node" aria-label="graph-node5" transform="translate(125.44400258483522,29.602579883828867)"><circle class="outline" cx="0" cy="0" r="25" fill="#ECB5C9" stroke="#da7298" stroke-width="2px"/><text class="caption" text-anchor="middle" pointer-events="none" x="0" y="0" font-size="10px" fill="#2A2C34" font-family="sans-serif"> atletico</text><text class="caption" text-anchor="middle" pointer-events="none" x="0" y="10" font-size="10px" fill="#2A2C34" font-family="sans-serif"> madrid</text></g><g class="node" aria-label="graph-node6" transform="translate(26.212444444362347,24.500558646119728)"><circle class="outline" cx="0" cy="0" r="25" fill="#ECB5C9" stroke="#da7298" stroke-width="2px"/><text class="caption" text-anchor="middle" pointer-events="none" x="0" y="5" font-size="10px" fill="#2A2C34" font-family="sans-serif"> chelsea</text></g><g class="node" aria-label="graph-node7" transform="translate(11.372800476980032,172.16924067738609)"><circle class="outline" cx="0" cy="0" r="25" fill="#ECB5C9" stroke="#da7298" stroke-width="2px"/><text class="caption" text-anchor="middle" pointer-events="none" x="0" y="5" font-size="10px" fill="#2A2C34" font-family="sans-serif"> liverpool</text></g><g class="node" aria-label="graph-node9" transform="translate(-76.60247992984918,72.53434634075586)"><circle class="outline" cx="0" cy="0" r="25" fill="#F16667" stroke="#eb2728" stroke-width="2px"/><text class="caption" text-anchor="middle" pointer-events="none" x="0" y="5" font-size="10px" fill="#FFFFFF" font-family="sans-serif"> moham…</text></g><g class="node" aria-label="graph-node11" transform="translate(-106.83507071618087,171.38220285814242)"><circle class="outline" cx="0" cy="0" r="25" fill="#ECB5C9" stroke="#da7298" stroke-width="2px"/><text class="caption" text-anchor="middle" pointer-events="none" x="0" y="5" font-size="10px" fill="#2A2C34" font-family="sans-serif"> manche…</text></g><g class="node" aria-label="graph-node12" transform="translate(-111.9434564657563,-33.76961861565209)"><circle class="outline" cx="0" cy="0" r="25" fill="#F16667" stroke="#eb2728" stroke-width="2px"/><text class="caption" text-anchor="middle" pointer-events="none" x="0" y="0" font-size="10px" fill="#FFFFFF" font-family="sans-serif"> cristiano</text><text class="caption" text-anchor="middle" pointer-events="none" x="0" y="10" font-size="10px" fill="#FFFFFF" font-family="sans-serif"> ronaldo</text></g><g class="node" aria-label="graph-node13" transform="translate(302.7994903449336,-75.6180839396627)"><circle class="outline" cx="0" cy="0" r="25" fill="#F16667" stroke="#eb2728" stroke-width="2px"/><text class="caption" text-anchor="middle" pointer-events="none" x="0" y="0" font-size="10px" fill="#FFFFFF" font-family="sans-serif"> luka</text><text class="caption" text-anchor="middle" pointer-events="none" x="0" y="10" font-size="10px" fill="#FFFFFF" font-family="sans-serif"> modric</text></g><g class="node" aria-label="graph-node14" transform="translate(347.99230245942243,-215.5404814827948)"><circle class="outline" cx="0" cy="0" r="25" fill="#F16667" stroke="#eb2728" stroke-width="2px"/><text class="caption" text-anchor="middle" pointer-events="none" x="0" y="0" font-size="10px" fill="#FFFFFF" font-family="sans-serif"> karim</text><text class="caption" text-anchor="middle" pointer-events="none" x="0" y="10" font-size="10px" fill="#FFFFFF" font-family="sans-serif"> benze…</text></g></g></svg>